<svg xmlns="http://www.w3.org/2000/svg" xmlns:xlink="http://www.w3.org/1999/xlink" width="1000" zoomAndPan="magnify" viewBox="0 0 750 374.999991" height="500" preserveAspectRatio="xMidYMid meet" version="1.0"><defs><g/><clipPath id="e8b3e5e70f"><path d="M 0.0390625 0.960938 L 216 0.960938 L 216 206 L 0.0390625 206 Z M 0.0390625 0.960938 " clip-rule="nonzero"/></clipPath><clipPath id="9514800bcd"><path d="M 41.464844 210.011719 L -2.199219 42.714844 L 174.824219 -3.488281 L 218.488281 163.804688 Z M 41.464844 210.011719 " clip-rule="nonzero"/></clipPath><clipPath id="b728367193"><path d="M 32 11 L 184 11 L 184 196 L 32 196 Z M 32 11 " clip-rule="nonzero"/></clipPath><clipPath id="f98b6d207b"><path d="M 41.464844 210.011719 L -2.199219 42.714844 L 174.824219 -3.488281 L 218.488281 163.804688 Z M 41.464844 210.011719 " clip-rule="nonzero"/></clipPath><clipPath id="61a77c78e3"><path d="M 217.882812 163.964844 L 174.214844 -3.332031 L -2.808594 42.875 L 40.859375 210.167969 Z M 217.882812 163.964844 " clip-rule="nonzero"/></clipPath><clipPath id="35a6c8b0dd"><rect x="0" width="216" y="0" height="206"/></clipPath><clipPath id="77f320adbf"><rect x="0" width="661" y="0" height="213"/></clipPath></defs><rect x="-75" width="900" fill="#ffffff" y="-37.499999" height="449.999989" fill-opacity="1"/><g transform="matrix(1, 0, 0, 1, 29, 84)"><g clip-path="url(#77f320adbf)"><g clip-path="url(#e8b3e5e70f)"><g clip-path="url(#9514800bcd)"><g transform="matrix(1, 0, 0, 1, -0.000000000000003553, 0)"><g clip-path="url(#35a6c8b0dd)"><g clip-path="url(#b728367193)"><g clip-path="url(#f98b6d207b)"><g clip-path="url(#61a77c78e3)"><path fill="#42a5af" d="M 132.773438 16.835938 C 146.148438 21.652344 148.671875 35.933594 146.5625 48.125 C 142.296875 72.863281 125.332031 99.972656 109.140625 118.777344 C 115.308594 101.367188 122.605469 81.816406 126.476562 63.921875 C 127.722656 58.152344 128.742188 52.136719 128.890625 46.382812 C 128.945312 43.65625 128.761719 41.046875 128.265625 39.054688 C 128.015625 38.066406 127.695312 37.277344 127.394531 36.765625 C 127.238281 36.53125 127.097656 36.34375 126.980469 36.246094 C 126.859375 36.15625 126.777344 36.117188 126.722656 36.113281 C 116.511719 36.058594 100.824219 52.15625 93.964844 59.902344 C 83.871094 71.363281 74.882812 83.863281 67.058594 97 C 65.058594 100.183594 63.359375 103.636719 61.527344 106.9375 C 60.625 108.804688 58.957031 112.265625 58.03125 114.140625 C 50.574219 130.671875 45.054688 148.273438 42.023438 166.367188 C 40.566406 175 39.578125 183.832031 39.808594 192.609375 L 39.875 195.074219 C 34.375 182.851562 32.96875 169.273438 32.71875 155.96875 C 32.699219 151.164062 33.007812 145.65625 33.425781 140.859375 C 34.242188 132.5 35.835938 124.042969 37.910156 115.894531 C 38.691406 113.113281 39.625 110.097656 40.441406 107.320312 C 41.226562 105.117188 42.671875 101.054688 43.476562 98.871094 C 45.167969 94.933594 46.726562 90.933594 48.722656 87.125 C 48.722656 87.125 51.050781 82.511719 51.050781 82.511719 C 61.617188 62.980469 74.957031 44.625 92.050781 30.257812 C 102.707031 21.589844 118.140625 11.765625 132.773438 16.835938 Z M 82.996094 190.183594 C 97.628906 195.253906 113.0625 185.429688 123.71875 176.761719 C 140.8125 162.394531 154.152344 144.039062 164.71875 124.503906 L 167.046875 119.894531 C 169.042969 116.085938 170.601562 112.085938 172.292969 108.144531 C 173.097656 105.964844 174.542969 101.902344 175.324219 99.699219 C 176.144531 96.921875 177.078125 93.90625 177.859375 91.121094 C 179.933594 82.972656 181.527344 74.519531 182.34375 66.160156 C 182.761719 61.363281 183.070312 55.851562 183.050781 51.050781 C 182.800781 37.746094 181.394531 24.167969 175.898438 11.945312 C 175.898438 11.945312 175.960938 14.410156 175.960938 14.410156 C 176.191406 23.1875 175.203125 32.019531 173.746094 40.648438 C 170.714844 58.746094 165.195312 76.347656 157.738281 92.878906 C 156.8125 94.75 155.144531 98.214844 154.242188 100.082031 C 152.410156 103.382812 150.710938 106.835938 148.710938 110.019531 C 140.886719 123.15625 131.894531 135.65625 121.804688 147.113281 C 114.949219 154.863281 99.257812 170.960938 89.046875 170.90625 C 88.992188 170.902344 88.910156 170.859375 88.789062 170.773438 C 88.671875 170.671875 88.535156 170.488281 88.375 170.253906 C 88.074219 169.738281 87.753906 168.949219 87.503906 167.960938 C 87.007812 165.972656 86.824219 163.363281 86.878906 160.636719 C 87.027344 154.882812 88.046875 148.867188 89.296875 143.097656 C 93.164062 125.203125 100.460938 105.648438 106.628906 88.242188 C 90.441406 107.046875 73.472656 134.15625 69.207031 158.894531 C 67.097656 171.085938 69.617188 185.367188 82.996094 190.183594 " fill-opacity="1" fill-rule="nonzero"/></g></g></g></g></g></g></g><g fill="#2f393e" fill-opacity="1"><g transform="translate(163.568033, 179.89804)"><g><path d="M 3.140625 -27.1875 C 3.140625 -31.15625 3.882812 -34.863281 5.375 -38.3125 C 6.875 -41.757812 8.929688 -44.753906 11.546875 -47.296875 C 14.160156 -49.847656 17.242188 -51.851562 20.796875 -53.3125 C 24.359375 -54.78125 28.160156 -55.515625 32.203125 -55.515625 C 36.242188 -55.515625 40.039062 -54.78125 43.59375 -53.3125 C 47.144531 -51.851562 50.226562 -49.847656 52.84375 -47.296875 C 55.457031 -44.753906 57.515625 -41.757812 59.015625 -38.3125 C 60.515625 -34.863281 61.265625 -31.15625 61.265625 -27.1875 C 61.265625 -23.207031 60.515625 -19.492188 59.015625 -16.046875 C 57.515625 -12.597656 55.457031 -9.617188 52.84375 -7.109375 C 50.226562 -4.597656 47.144531 -2.609375 43.59375 -1.140625 C 40.039062 0.316406 36.242188 1.046875 32.203125 1.046875 C 28.160156 1.046875 24.359375 0.316406 20.796875 -1.140625 C 17.242188 -2.609375 14.160156 -4.597656 11.546875 -7.109375 C 8.929688 -9.617188 6.875 -12.597656 5.375 -16.046875 C 3.882812 -19.492188 3.140625 -23.207031 3.140625 -27.1875 Z M 32.203125 -11.390625 C 36.378906 -11.390625 39.929688 -12.921875 42.859375 -15.984375 C 45.785156 -19.054688 47.25 -22.789062 47.25 -27.1875 C 47.25 -31.644531 45.785156 -35.40625 42.859375 -38.46875 C 39.929688 -41.539062 36.378906 -43.078125 32.203125 -43.078125 C 28.015625 -43.078125 24.457031 -41.539062 21.53125 -38.46875 C 18.601562 -35.40625 17.140625 -31.644531 17.140625 -27.1875 C 17.140625 -22.789062 18.601562 -19.054688 21.53125 -15.984375 C 24.457031 -12.921875 28.015625 -11.390625 32.203125 -11.390625 Z M 32.203125 -11.390625 "/></g></g></g><g fill="#2f393e" fill-opacity="1"><g transform="translate(224.831284, 179.89804)"><g><path d="M 5.640625 0 L 5.640625 -54.46875 L 19.96875 -54.46875 L 19.96875 -50.390625 C 21.914062 -52.066406 24.070312 -53.335938 26.4375 -54.203125 C 28.8125 -55.078125 31.394531 -55.515625 34.1875 -55.515625 C 37.675781 -55.515625 40.828125 -54.800781 43.640625 -53.375 C 46.460938 -51.945312 48.78125 -49.941406 50.59375 -47.359375 C 52.757812 -50.003906 55.375 -52.023438 58.4375 -53.421875 C 61.507812 -54.816406 64.890625 -55.515625 68.578125 -55.515625 C 74.640625 -55.515625 79.625 -53.492188 83.53125 -49.453125 C 87.4375 -45.410156 89.390625 -40.21875 89.390625 -33.875 L 89.390625 0 L 75.0625 0 L 75.0625 -31.78125 C 75.0625 -35.195312 74.140625 -37.945312 72.296875 -40.03125 C 70.453125 -42.125 67.957031 -43.171875 64.8125 -43.171875 C 62.65625 -43.171875 60.6875 -42.703125 58.90625 -41.765625 C 57.132812 -40.828125 55.617188 -39.484375 54.359375 -37.734375 C 54.429688 -37.109375 54.5 -36.484375 54.5625 -35.859375 C 54.632812 -35.234375 54.671875 -34.570312 54.671875 -33.875 L 54.671875 0 L 40.359375 0 L 40.359375 -31.78125 C 40.359375 -35.195312 39.429688 -37.945312 37.578125 -40.03125 C 35.734375 -42.125 33.242188 -43.171875 30.109375 -43.171875 C 27.953125 -43.171875 26.035156 -42.753906 24.359375 -41.921875 C 22.679688 -41.085938 21.21875 -39.867188 19.96875 -38.265625 L 19.96875 0 Z M 5.640625 0 "/></g></g></g><g fill="#2f393e" fill-opacity="1"><g transform="translate(316.412528, 179.89804)"><g><path d="M 22.890625 0.9375 C 17.035156 0.9375 12.257812 -0.609375 8.5625 -3.703125 C 4.875 -6.804688 3.03125 -10.832031 3.03125 -15.78125 C 3.03125 -20.9375 5.015625 -24.976562 8.984375 -27.90625 C 12.960938 -30.84375 18.4375 -32.3125 25.40625 -32.3125 C 27.632812 -32.3125 29.863281 -32.132812 32.09375 -31.78125 C 34.320312 -31.4375 36.519531 -30.914062 38.6875 -30.21875 L 38.6875 -34.078125 C 38.6875 -37.210938 37.707031 -39.582031 35.75 -41.1875 C 33.800781 -42.789062 30.945312 -43.59375 27.1875 -43.59375 C 24.882812 -43.59375 22.390625 -43.226562 19.703125 -42.5 C 17.023438 -41.769531 13.976562 -40.632812 10.5625 -39.09375 L 5.328125 -49.65625 C 9.578125 -51.613281 13.707031 -53.078125 17.71875 -54.046875 C 21.726562 -55.023438 25.6875 -55.515625 29.59375 -55.515625 C 36.90625 -55.515625 42.597656 -53.753906 46.671875 -50.234375 C 50.753906 -46.710938 52.796875 -41.75 52.796875 -35.34375 L 52.796875 0 L 38.6875 0 L 38.6875 -3.765625 C 36.382812 -2.160156 33.957031 -0.972656 31.40625 -0.203125 C 28.863281 0.554688 26.023438 0.9375 22.890625 0.9375 Z M 16.734375 -16.09375 C 16.734375 -14.007812 17.632812 -12.351562 19.4375 -11.125 C 21.25 -9.90625 23.65625 -9.296875 26.65625 -9.296875 C 29.03125 -9.296875 31.207031 -9.59375 33.1875 -10.1875 C 35.175781 -10.78125 37.007812 -11.632812 38.6875 -12.75 L 38.6875 -20.90625 C 36.9375 -21.601562 35.101562 -22.109375 33.1875 -22.421875 C 31.269531 -22.734375 29.269531 -22.890625 27.1875 -22.890625 C 23.90625 -22.890625 21.34375 -22.28125 19.5 -21.0625 C 17.65625 -19.84375 16.734375 -18.1875 16.734375 -16.09375 Z M 16.734375 -16.09375 "/></g></g></g><g fill="#2f393e" fill-opacity="1"><g transform="translate(371.298559, 179.89804)"><g><path d="M 46.3125 0 L 46.3125 -4.5 C 44.15625 -2.75 41.75 -1.4375 39.09375 -0.5625 C 36.445312 0.300781 33.695312 0.734375 30.84375 0.734375 C 27.007812 0.734375 23.398438 0.00390625 20.015625 -1.453125 C 16.640625 -2.921875 13.695312 -4.910156 11.1875 -7.421875 C 8.675781 -9.929688 6.707031 -12.894531 5.28125 -16.3125 C 3.851562 -19.726562 3.140625 -23.382812 3.140625 -27.28125 C 3.140625 -31.1875 3.867188 -34.847656 5.328125 -38.265625 C 6.796875 -41.679688 8.785156 -44.644531 11.296875 -47.15625 C 13.804688 -49.664062 16.785156 -51.632812 20.234375 -53.0625 C 23.679688 -54.488281 27.359375 -55.203125 31.265625 -55.203125 C 33.910156 -55.203125 36.503906 -54.832031 39.046875 -54.09375 C 41.585938 -53.363281 43.941406 -52.304688 46.109375 -50.921875 L 46.109375 -73.1875 L 60.421875 -76.3125 L 60.421875 0 Z M 17.25 -27.28125 C 17.25 -22.894531 18.78125 -19.164062 21.84375 -16.09375 C 24.914062 -13.03125 28.679688 -11.5 33.140625 -11.5 C 35.785156 -11.5 38.207031 -11.953125 40.40625 -12.859375 C 42.601562 -13.765625 44.503906 -15.054688 46.109375 -16.734375 L 46.109375 -37.953125 C 44.578125 -39.554688 42.675781 -40.8125 40.40625 -41.71875 C 38.144531 -42.625 35.722656 -43.078125 33.140625 -43.078125 C 28.609375 -43.078125 24.828125 -41.5625 21.796875 -38.53125 C 18.765625 -35.5 17.25 -31.75 17.25 -27.28125 Z M 17.25 -27.28125 "/></g></g></g><g fill="#42a5af" fill-opacity="1"><g transform="translate(434.259617, 179.89804)"><g><path d="M 43.171875 -12.96875 C 47.003906 -12.96875 50.59375 -13.765625 53.9375 -15.359375 C 57.289062 -16.960938 60.253906 -19.265625 62.828125 -22.265625 L 72.765625 -12.4375 C 69.273438 -8.320312 64.828125 -5.046875 59.421875 -2.609375 C 54.023438 -0.171875 48.472656 1.046875 42.765625 1.046875 C 37.253906 1.046875 32.109375 0.0703125 27.328125 -1.875 C 22.554688 -3.832031 18.425781 -6.484375 14.9375 -9.828125 C 11.457031 -13.171875 8.722656 -17.140625 6.734375 -21.734375 C 4.753906 -26.335938 3.765625 -31.289062 3.765625 -36.59375 C 3.765625 -41.882812 4.773438 -46.847656 6.796875 -51.484375 C 8.816406 -56.117188 11.566406 -60.109375 15.046875 -63.453125 C 18.535156 -66.804688 22.664062 -69.457031 27.4375 -71.40625 C 32.21875 -73.351562 37.328125 -74.328125 42.765625 -74.328125 C 48.617188 -74.328125 54.296875 -73.085938 59.796875 -70.609375 C 65.304688 -68.140625 69.769531 -64.816406 73.1875 -60.640625 L 62.9375 -50.5 C 60.351562 -53.707031 57.316406 -56.160156 53.828125 -57.859375 C 50.347656 -59.566406 46.660156 -60.421875 42.765625 -60.421875 C 39.484375 -60.421875 36.394531 -59.8125 33.5 -58.59375 C 30.613281 -57.375 28.125 -55.703125 26.03125 -53.578125 C 23.9375 -51.453125 22.296875 -48.941406 21.109375 -46.046875 C 19.929688 -43.160156 19.34375 -40.007812 19.34375 -36.59375 C 19.34375 -33.25 19.953125 -30.128906 21.171875 -27.234375 C 22.390625 -24.335938 24.0625 -21.84375 26.1875 -19.75 C 28.3125 -17.664062 30.820312 -16.015625 33.71875 -14.796875 C 36.613281 -13.578125 39.765625 -12.96875 43.171875 -12.96875 Z M 43.171875 -12.96875 "/></g></g></g><g fill="#2f393e" fill-opacity="1"><g transform="translate(506.196929, 179.89804)"><g><path d="M 22.890625 0.9375 C 17.035156 0.9375 12.257812 -0.609375 8.5625 -3.703125 C 4.875 -6.804688 3.03125 -10.832031 3.03125 -15.78125 C 3.03125 -20.9375 5.015625 -24.976562 8.984375 -27.90625 C 12.960938 -30.84375 18.4375 -32.3125 25.40625 -32.3125 C 27.632812 -32.3125 29.863281 -32.132812 32.09375 -31.78125 C 34.320312 -31.4375 36.519531 -30.914062 38.6875 -30.21875 L 38.6875 -34.078125 C 38.6875 -37.210938 37.707031 -39.582031 35.75 -41.1875 C 33.800781 -42.789062 30.945312 -43.59375 27.1875 -43.59375 C 24.882812 -43.59375 22.390625 -43.226562 19.703125 -42.5 C 17.023438 -41.769531 13.976562 -40.632812 10.5625 -39.09375 L 5.328125 -49.65625 C 9.578125 -51.613281 13.707031 -53.078125 17.71875 -54.046875 C 21.726562 -55.023438 25.6875 -55.515625 29.59375 -55.515625 C 36.90625 -55.515625 42.597656 -53.753906 46.671875 -50.234375 C 50.753906 -46.710938 52.796875 -41.75 52.796875 -35.34375 L 52.796875 0 L 38.6875 0 L 38.6875 -3.765625 C 36.382812 -2.160156 33.957031 -0.972656 31.40625 -0.203125 C 28.863281 0.554688 26.023438 0.9375 22.890625 0.9375 Z M 16.734375 -16.09375 C 16.734375 -14.007812 17.632812 -12.351562 19.4375 -11.125 C 21.25 -9.90625 23.65625 -9.296875 26.65625 -9.296875 C 29.03125 -9.296875 31.207031 -9.59375 33.1875 -10.1875 C 35.175781 -10.78125 37.007812 -11.632812 38.6875 -12.75 L 38.6875 -20.90625 C 36.9375 -21.601562 35.101562 -22.109375 33.1875 -22.421875 C 31.269531 -22.734375 29.269531 -22.890625 27.1875 -22.890625 C 23.90625 -22.890625 21.34375 -22.28125 19.5 -21.0625 C 17.65625 -19.84375 16.734375 -18.1875 16.734375 -16.09375 Z M 16.734375 -16.09375 "/></g></g></g><g fill="#2f393e" fill-opacity="1"><g transform="translate(561.082959, 179.89804)"><g><path d="M 5.640625 0 L 5.640625 -54.46875 L 19.96875 -54.46875 L 19.96875 -48.515625 C 21.707031 -50.878906 23.8125 -52.671875 26.28125 -53.890625 C 28.757812 -55.109375 31.5 -55.71875 34.5 -55.71875 C 35.894531 -55.65625 37.0625 -55.535156 38 -55.359375 C 38.945312 -55.179688 39.765625 -54.882812 40.453125 -54.46875 L 40.453125 -41.921875 C 39.410156 -42.410156 38.257812 -42.773438 37 -43.015625 C 35.75 -43.265625 34.460938 -43.390625 33.140625 -43.390625 C 30.347656 -43.390625 27.785156 -42.691406 25.453125 -41.296875 C 23.117188 -39.898438 21.289062 -37.878906 19.96875 -35.234375 L 19.96875 0 Z M 5.640625 0 "/></g></g></g><g fill="#2f393e" fill-opacity="1"><g transform="translate(600.496346, 179.89804)"><g><path d="M 54.46875 -6.796875 C 51.125 -4.078125 47.691406 -2.085938 44.171875 -0.828125 C 40.648438 0.421875 36.726562 1.046875 32.40625 1.046875 C 28.289062 1.046875 24.4375 0.316406 20.84375 -1.140625 C 17.257812 -2.609375 14.160156 -4.597656 11.546875 -7.109375 C 8.929688 -9.617188 6.875 -12.597656 5.375 -16.046875 C 3.882812 -19.492188 3.140625 -23.207031 3.140625 -27.1875 C 3.140625 -31.082031 3.851562 -34.753906 5.28125 -38.203125 C 6.707031 -41.660156 8.675781 -44.660156 11.1875 -47.203125 C 13.695312 -49.742188 16.675781 -51.742188 20.125 -53.203125 C 23.570312 -54.671875 27.25 -55.40625 31.15625 -55.40625 C 34.988281 -55.40625 38.5625 -54.65625 41.875 -53.15625 C 45.1875 -51.664062 48.039062 -49.628906 50.4375 -47.046875 C 52.84375 -44.460938 54.722656 -41.375 56.078125 -37.78125 C 57.441406 -34.195312 58.125 -30.316406 58.125 -26.140625 L 58.125 -22.375 L 17.5625 -22.375 C 18.539062 -18.957031 20.421875 -16.203125 23.203125 -14.109375 C 25.992188 -12.023438 29.269531 -10.984375 33.03125 -10.984375 C 35.40625 -10.984375 37.632812 -11.363281 39.71875 -12.125 C 41.8125 -12.894531 43.59375 -13.976562 45.0625 -15.375 Z M 30.84375 -43.59375 C 27.5625 -43.59375 24.734375 -42.597656 22.359375 -40.609375 C 19.992188 -38.628906 18.359375 -35.96875 17.453125 -32.625 L 44.125 -32.625 C 43.21875 -35.820312 41.5625 -38.445312 39.15625 -40.5 C 36.75 -42.5625 33.976562 -43.59375 30.84375 -43.59375 Z M 30.84375 -43.59375 "/></g></g></g></g></g></svg>